<?xml version="1.0" encoding="utf-8"?>
<svg version="1.1" xmlns="http://www.w3.org/2000/svg" viewBox="0 0 500 187">
	<style type="text/css">
		.st0{fill:#444545;}
		.st1{fill:#6DBF52;}
		.st2{fill:#898989;}
		.st3{fill:none;stroke:#454546;stroke-width:0.5;stroke-miterlimit:10;}
	</style>
	<g>
		<path class="st0" d="M43.5,64.8h5.2v3.5c0.9-1.2,3.6-4.2,8.7-4.2c3.6,0,6.8,1.5,8.7,4.2c1.5,2.3,1.7,4.7,1.7,8.1V95h-5.2V76.4
			c0-1.8-0.1-3.9-1.4-5.5c-1-1.3-2.6-2.2-5-2.2c-1.8,0-3.8,0.5-5.3,2.3c-2,2.4-2.2,6-2.2,8.2V95h-5.2V64.8z"/>
		<path class="st0" d="M104.6,87.3c-0.9,1.7-2.2,3.5-3.7,4.9c-2.8,2.5-6.2,3.7-10.1,3.7c-7.3,0-14.9-4.6-14.9-15.8
			c0-9,5.5-16,14.6-16c5.9,0,9.6,2.9,11.4,5.5c1.9,2.7,3,7.4,2.8,11.4H81.3c0.1,6.3,4.4,10.3,9.6,10.3c2.5,0,4.4-0.7,6.2-2.2
			c1.4-1.2,2.5-2.7,3.1-4.2L104.6,87.3z M99.4,76.6c-0.9-4.7-4.4-7.9-8.9-7.9c-4.4,0-8.1,3.4-8.9,7.9H99.4z"/>
		<path class="st0" d="M114.3,64.8l9,20.5l9.5-22.9l9.4,22.9l9-20.5h5.8l-15,32.4l-9.3-22.6l-9.3,22.6l-14.9-32.4H114.3z"/>
		<path class="st1" d="M191.6,69.6c-2.9-2.4-5.9-2.8-7.8-2.8c-3.7,0-6,1.8-6.8,2.7c-1.6,1.6-2.7,4-2.7,7c0,2.7,1,5.1,2.5,6.7
			c1.8,2,4.6,3,7.2,3c2.1,0,4.9-0.6,7.7-2.9V94c-3.2,1.7-6.2,2.2-9.5,2.2c-6.2,0-11-2.2-14.4-5.6c-2.8-2.7-5.8-7.4-5.8-14.2
			c0-6.3,2.7-11.3,6.2-14.7c4.2-3.9,9.1-5.2,14.2-5.2c3.2,0,6.2,0.6,9.4,2.1V69.6z"/>
		<path class="st1" d="M199.6,57.9h12v5.8c1.1-2.1,2.7-4,4.7-5.2c2-1.2,4.1-1.6,6.4-1.6c1.5,0,2.6,0.2,3.9,0.6l-0.7,11.2
			c-1.6-0.8-3.3-1.3-5.4-1.3c-2.6,0-4.5,0.9-6,2.5c-2.7,2.8-2.9,6.8-2.9,10V95h-12V57.9z"/>
		<path class="st1" d="M268.3,78.5h-27.7c0,2,0.7,4.7,2.2,6.3c1.8,2,4.3,2.3,6.2,2.3c1.7,0,3.6-0.3,4.8-1.1c0.2-0.1,1.6-1,2.6-3.1
			l11.3,1.2c-1.7,5.2-5,8-7.2,9.3c-3.6,2.2-7.6,2.7-11.7,2.7c-5.6,0-10.5-1-14.8-5.3c-3.2-3.2-5.6-8.2-5.6-14.3
			c0-5.3,1.9-10.8,5.7-14.7c4.5-4.5,10.1-5.3,14.2-5.3c4.2,0,10.2,0.7,14.7,5.6c4.4,4.7,5.2,10.5,5.2,15.1V78.5z M257.3,71.4
			c-0.1-0.3-0.7-2.7-2.4-4.3c-1.3-1.2-3.2-2.1-5.7-2.1c-3.1,0-4.9,1.2-6.1,2.4c-0.9,1-1.7,2.3-2.1,4H257.3z"/>
		<path class="st1" d="M304.3,57.9h12V95h-12v-4.5c-3.2,5-7.9,5.7-11,5.7c-5.3,0-9.8-1.3-13.9-5.7c-3.9-4.2-5.4-9-5.4-13.9
			c0-6.2,2.3-11.6,5.7-15c3.2-3.2,7.7-5.1,12.9-5.1c3.2,0,8.2,0.7,11.7,5.4V57.9z M289.1,69.6c-1.2,1.2-2.7,3.4-2.7,6.7
			s1.4,5.5,2.5,6.7c1.7,1.7,4.2,2.9,7.1,2.9c2.4,0,4.7-1,6.2-2.6c1.6-1.5,2.9-3.8,2.9-7c0-2.7-1-5.2-2.7-6.8
			c-1.8-1.7-4.5-2.6-6.7-2.6C293.1,67,290.6,68,289.1,69.6z"/>
		<path class="st1" d="M337.9,67.5V95h-12V67.5h-4.2v-9.7h4.2v-12h12v12h7.4v9.7H337.9z"/>
		<path class="st1" d="M357.3,35.1c3.9,0,7,3.1,7,7s-3.1,7-7,7c-3.9,0-7-3.1-7-7S353.4,35.1,357.3,35.1z M363.3,57.9V95h-12V57.9
			H363.3z"/>
		<path class="st1" d="M409.7,90.3c-3.3,3.3-9,6-16.2,6s-12.9-2.7-16.2-6c-3.7-3.7-5.6-9.1-5.6-13.8c0-4.7,1.8-10.1,5.6-13.8
			c3.3-3.3,9-6,16.2-6s12.9,2.7,16.2,6c3.7,3.7,5.6,9.1,5.6,13.8C415.3,81.2,413.5,86.5,409.7,90.3z M386.7,69.5
			c-1.7,1.7-2.7,4-2.7,7c0,3.4,1.3,5.6,2.7,7c1.5,1.5,3.7,2.7,6.8,2.7c2.7,0,4.9-0.9,6.7-2.7c1.7-1.7,2.7-4,2.7-7c0-3-1-5.2-2.7-7
			c-1.7-1.7-4-2.7-6.7-2.7C390.7,66.8,388.5,67.7,386.7,69.5z"/>
		<path class="st1" d="M422.8,57.9h12v4.4c3.7-4.7,8-5.4,11.5-5.4c3.2,0,7.5,0.6,10.7,3.7c3.5,3.5,3.7,7.9,3.7,10.9V95h-12V76
			c0-2.4-0.1-5.5-2-7.4c-0.9-0.9-2.4-1.7-4.6-1.7c-2.5,0-4.1,1-5,2c-2,2-2.3,4.7-2.3,7.1V95h-12V57.9z"/>
		<path class="st2" d="M48,128.6h24.9v-19.7h5.4v48.6h-5.4v-23.8H48v23.8h-5.4v-48.6H48V128.6z"/>
		<path class="st2" d="M119.7,114H99.9v14.4h19.2v5.1H99.9v18.9h19.8v5.1H94.5v-48.6h25.2V114z"/>
		<path class="st2" d="M160.1,143.8h-20.7l-5.8,13.7h-6l22.4-50.9l21.8,50.9h-6L160.1,143.8z M157.9,138.7l-8.2-19.5l-8.3,19.5H157.9
			z"/>
		<path class="st2" d="M187.6,108.9v43.5H201v5.1h-18.8v-48.6H187.6z"/>
		<path class="st2" d="M222.6,114v43.5h-5.4V114h-11.8v-5.1h29v5.1H222.6z"/>
		<path class="st2" d="M250.7,128.6h24.9v-19.7h5.4v48.6h-5.4v-23.8h-24.9v23.8h-5.4v-48.6h5.4V128.6z"/>
		<path class="st2" d="M334.3,119.6c-1.5-1.5-3.9-3.4-6.3-4.5c-2.5-1.2-5.5-1.9-8.4-1.9c-11.2,0-19.5,9-19.5,20.3
			c0,13.2,10.7,19.8,19.6,19.8c3.3,0,6.5-0.9,9-2.3c2.8-1.4,4.7-3.2,5.6-4.1v6.7c-5.4,3.9-11,4.7-14.6,4.7c-14.4,0-25.1-10.9-25.1-25
			c0-14.5,10.9-25.3,25.4-25.3c2.9,0,8.5,0.4,14.4,4.8V119.6z"/>
		<path class="st2" d="M374.7,143.8H354l-5.8,13.7h-6l22.4-50.9l21.8,50.9h-6L374.7,143.8z M372.6,138.7l-8.2-19.5l-8.3,19.5H372.6z"
			/>
		<path class="st2" d="M404.6,108.9c3.3,0,8.2,0.2,11.8,2.7c2.8,1.9,5.3,5.6,5.3,10.8c0,7.4-4.9,12.9-12.2,13.4l15.4,21.7h-6.6
			l-14.8-21.3h-1.4v21.3h-5.4v-48.6H404.6z M402.2,131.4h3.4c6.7,0,10.7-3.2,10.7-8.9c0-2.7-0.8-5.4-3.9-7.1c-2.2-1.2-4.7-1.4-7-1.4
			h-3.3V131.4z"/>
		<path class="st2" d="M462.3,114h-19.8v14.4h19.2v5.1h-19.2v18.9h19.8v5.1h-25.2v-48.6h25.2V114z"/>
	</g>
	<line class="st3" x1="18.3" y1="101.6" x2="483.9" y2="101.6"/>
</svg>
