<?xml version="1.0" encoding="utf-8"?>
<!-- Generator: Adobe Illustrator 21.0.2, SVG Export Plug-In . SVG Version: 6.00 Build 0)  -->
<svg version="1.1" id="Layer_1" xmlns="http://www.w3.org/2000/svg" xmlns:xlink="http://www.w3.org/1999/xlink" x="0px" y="0px"
	 viewBox="0 0 600 300" style="enable-background:new 0 0 600 300;" xml:space="preserve">
<style type="text/css">
	.st0{fill:#444445;}
	.st1{fill:#6EBE52;}
	.st2{fill:#888888;}
	.st3{fill:none;stroke:#444546;stroke-width:0.5;stroke-miterlimit:10;}
	.st4{fill:#D84748;}
	.st5{font-family:'FontAwesome';}
	.st6{font-size:27.7994px;}
	.st7{fill:#96CC7F;}
	.st8{fill:#70BE55;}
</style>
<g>
	<path class="st0" d="M36.3,182.3h5.8v3.8c1-1.4,4-4.6,9.5-4.6c3.9,0,7.5,1.6,9.5,4.6c1.7,2.5,1.9,5.2,1.9,8.9v20.6h-5.8v-20.4
		c0-2-0.2-4.3-1.5-6.1c-1.1-1.4-2.9-2.4-5.4-2.4c-2,0-4.2,0.6-5.8,2.6c-2.2,2.6-2.4,6.6-2.4,9v17.4h-5.8V182.3z"/>
	<path class="st0" d="M103.4,207c-1,1.8-2.4,3.8-4.1,5.4c-3,2.7-6.8,4.1-11.1,4.1c-8,0-16.4-5-16.4-17.4c0-9.9,6.1-17.6,16.1-17.6
		c6.5,0,10.6,3.2,12.6,6.1c2.1,3,3.3,8.1,3.1,12.5H77.8c0.1,6.9,4.8,11.3,10.6,11.3c2.7,0,4.9-0.8,6.8-2.4c1.5-1.3,2.7-3,3.4-4.6
		L103.4,207z M97.7,195.2c-1-5.2-4.9-8.6-9.8-8.6c-4.9,0-8.9,3.7-9.8,8.6H97.7z"/>
	<path class="st0" d="M114,182.3l9.9,22.6l10.4-25.1l10.3,25.1l9.9-22.6h6.4l-16.5,35.6L134.2,193L124,217.8l-16.3-35.6H114z"/>
	<path class="st1" d="M199,187.6c-3.2-2.7-6.5-3.1-8.6-3.1c-4.1,0-6.6,2-7.5,2.9c-1.7,1.7-3,4.4-3,7.7c0,3,1.1,5.6,2.7,7.3
		c2,2.2,5,3.3,8,3.3c2.3,0,5.4-0.6,8.4-3.2v11.9c-3.5,1.9-6.8,2.5-10.4,2.5c-6.9,0-12.1-2.5-15.8-6.1c-3.1-3-6.4-8.1-6.4-15.6
		c0-7,2.9-12.4,6.8-16.1c4.6-4.3,10-5.8,15.6-5.8c3.6,0,6.9,0.6,10.3,2.3V187.6z"/>
	<path class="st1" d="M207.8,174.7H221v6.4c1.2-2.3,3-4.4,5.1-5.7c2.2-1.4,4.5-1.7,7-1.7c1.6,0,2.8,0.2,4.3,0.6l-0.7,12.4
		c-1.7-0.9-3.7-1.5-5.9-1.5c-2.8,0-4.9,1-6.6,2.7c-2.9,3.1-3.2,7.5-3.2,11v16.6h-13.2V174.7z"/>
	<path class="st1" d="M283.4,197.4h-30.5c0,2.2,0.8,5.1,2.5,7c2,2.2,4.8,2.6,6.8,2.6c1.9,0,3.9-0.4,5.3-1.2c0.2-0.1,1.7-1.1,2.8-3.4
		l12.4,1.3c-1.8,5.8-5.5,8.8-7.9,10.3c-3.9,2.4-8.3,3-12.9,3c-6.1,0-11.5-1.1-16.3-5.9c-3.6-3.6-6.1-9-6.1-15.7
		c0-5.9,2.1-11.9,6.2-16.1c4.9-4.9,11.1-5.9,15.7-5.9c4.6,0,11.2,0.8,16.2,6.1c4.9,5.1,5.8,11.5,5.8,16.6V197.4z M271.2,189.5
		c-0.1-0.4-0.7-2.9-2.7-4.8c-1.5-1.4-3.6-2.3-6.2-2.3c-3.4,0-5.4,1.4-6.7,2.7c-1,1.1-1.9,2.6-2.3,4.4H271.2z"/>
	<path class="st1" d="M322.9,174.7h13.2v40.8h-13.2v-4.9c-3.6,5.5-8.7,6.3-12.1,6.3c-5.9,0-10.8-1.5-15.3-6.2
		c-4.3-4.6-5.9-9.9-5.9-15.3c0-6.9,2.6-12.7,6.3-16.5c3.6-3.6,8.5-5.6,14.2-5.6c3.5,0,9.1,0.8,12.8,5.9V174.7z M306.2,187.6
		c-1.4,1.4-3,3.8-3,7.4s1.6,6,2.7,7.3c1.8,1.9,4.7,3.2,7.8,3.2c2.7,0,5.1-1.1,6.9-2.8c1.7-1.6,3.2-4.2,3.2-7.7c0-2.9-1.1-5.7-3-7.5
		c-2-1.9-4.9-2.8-7.3-2.8C310.6,184.7,307.9,185.8,306.2,187.6z"/>
	<path class="st1" d="M359.9,185.3v30.2h-13.2v-30.2h-4.6v-10.6h4.6v-13.2h13.2v13.2h8.1v10.6H359.9z"/>
	<path class="st1" d="M381.2,149.6c4.3,0,7.7,3.4,7.7,7.7c0,4.3-3.4,7.7-7.7,7.7c-4.3,0-7.7-3.4-7.7-7.7
		C373.5,153,376.9,149.6,381.2,149.6z M387.8,174.7v40.8h-13.2v-40.8H387.8z"/>
	<path class="st1" d="M438.8,210.3c-3.7,3.7-9.9,6.6-17.8,6.6c-8,0-14.2-2.9-17.8-6.6c-4.1-4.1-6.1-10-6.1-15.2
		c0-5.2,2-11.1,6.1-15.2c3.7-3.7,9.9-6.6,17.8-6.6c8,0,14.2,2.9,17.8,6.6c4.1,4.1,6.1,10,6.1,15.2
		C444.9,200.3,442.9,206.2,438.8,210.3z M413.5,187.4c-1.9,1.9-3,4.4-3,7.7c0,3.8,1.5,6.1,3,7.7c1.6,1.6,4,2.9,7.5,2.9
		c2.9,0,5.4-1,7.3-2.9c1.9-1.9,3-4.4,3-7.7c0-3.3-1.1-5.8-3-7.7c-1.9-1.9-4.4-2.9-7.4-2.9C417.9,184.5,415.4,185.5,413.5,187.4z"/>
	<path class="st1" d="M453.1,174.7h13.2v4.9c4-5.1,8.8-5.9,12.6-5.9c3.6,0,8.2,0.6,11.7,4.1c3.8,3.8,4.1,8.7,4.1,12l-1.1,25.8
		l-11.1-0.5c-0.5,0.2-1.1-0.2-1.1-0.8l0.1-19.7c0-2.7-0.1-6-2.2-8.1c-1-1-2.7-1.8-5-1.8c-2.7,0-4.5,1.1-5.5,2.2
		c-2.2,2.2-2.6,5.1-2.6,7.8v21h-13.2V174.7z"/>
	<path class="st2" d="M41.2,252.4h27.4v-21.7h5.9v53.4h-5.9V258H41.2v26.1h-5.9v-53.4h5.9V252.4z"/>
	<path class="st2" d="M120,236.3H98.2v15.9h21.1v5.6H98.2v20.7H120v5.6H92.3v-53.4H120V236.3z"/>
	<path class="st2" d="M164.4,269.1h-22.7l-6.4,15.1h-6.6l24.6-56l23.9,56h-6.6L164.4,269.1z M162,263.5l-9-21.4l-9.1,21.4H162z"/>
	<path class="st2" d="M194.6,230.7v47.8h14.7v5.6h-20.7v-53.4H194.6z"/>
	<path class="st2" d="M233.1,236.3v47.8h-5.9v-47.8h-13v-5.6H246v5.6H233.1z"/>
	<path class="st2" d="M264,252.4h27.4v-21.7h5.9v53.4h-5.9V258H264v26.1h-5.9v-53.4h5.9V252.4z"/>
	<path class="st2" d="M355.9,242.5c-1.7-1.7-4.2-3.7-7-5c-2.8-1.3-6.1-2.1-9.2-2.1c-12.3,0-21.5,9.9-21.5,22.3
		c0,14.5,11.8,21.8,21.5,21.8c3.6,0,7.1-1,9.9-2.5c3-1.5,5.2-3.5,6.2-4.5v7.4c-5.9,4.2-12.1,5.2-16.1,5.2c-15.9,0-27.6-12-27.6-27.5
		c0-15.9,11.9-27.8,27.9-27.8c3.2,0,9.4,0.4,15.8,5.3V242.5z"/>
	<path class="st2" d="M400.3,269.1h-22.7l-6.4,15.1h-6.6l24.6-56l23.9,56h-6.6L400.3,269.1z M397.9,263.5l-9-21.4l-9.1,21.4H397.9z"
		/>
	<path class="st2" d="M433.2,230.7c3.6,0,9,0.2,13,3c3.1,2.1,5.8,6.2,5.8,11.9c0,8.2-5.4,14.2-13.5,14.7l17,23.9h-7.2l-16.3-23.4
		h-1.5v23.4h-5.9v-53.4H433.2z M430.5,255.5h3.8c7.4,0,11.8-3.5,11.8-9.8c0-3-0.9-5.9-4.2-7.8c-2.4-1.4-5.1-1.5-7.7-1.5h-3.6V255.5z
		"/>
	<path class="st2" d="M496.5,236.3h-21.8v15.9h21.1v5.6h-21.1v20.7h21.8v5.6h-27.7v-53.4h27.7V236.3z"/>
</g>
<line class="st3" x1="8.6" y1="222.7" x2="520.3" y2="222.7"/>
<text transform="matrix(0.9586 0.2849 -0.2849 0.9586 417.6668 152.2796)" class="st4 st5 st6"> </text>
<polyline class="st2" points="521.5,284.1 521.5,146 568.9,146 444.9,36.9 361.6,109.5 361.6,45.9 345.4,45.9 345.4,121.4 
	302.4,160.5 296.5,160.5 296.5,145.6 329.6,116.2 329.6,29.8 377,29.8 377,73 445.7,15.1 593.3,145.1 593.3,161.2 536.9,161.2 
	536.9,284.1 "/>
<g>
	<path class="st7" d="M386.1,141.1c44.1-10.1,40.9,32,40.9,32C414,152.2,386.1,141.1,386.1,141.1z"/>
	<path class="st7" d="M427.5,173.5c0,0,27.5-45.7,72.3-20"/>
	<path class="st8" d="M499.7,153.5c0,0-3.1,4.2-27.5,17.5c-24.4,13.3-43.8,3.9-43.8,3.9l-2.8-0.9c0,0-11.9-1.1-20.4-5.7
		c-13.1-7.1-21.7-19.3-19.2-27.2c0,0,32.5,11.5,40.9,32c0.1,0.1,0.3,0.5,0.4,0.4C439.2,165.9,462.3,150.3,499.7,153.5z"/>
</g>
</svg>
